G04 #@! TF.FileFunction,Legend,Top*
%FSLAX46Y46*%
G04 Gerber Fmt 4.6, Leading zero omitted, Abs format (unit mm)*
G04 Created by KiCad (PCBNEW 4.0.4-stable) date *
%MOMM*%
%LPD*%
G01*
G04 APERTURE LIST*
%ADD10C,0.100000*%
%ADD11C,0.200000*%
%ADD12C,0.150000*%
G04 APERTURE END LIST*
D10*
D11*
X121000000Y-96500000D02*
X121000000Y-116500000D01*
X161000000Y-116500000D02*
X121000000Y-116500000D01*
X121000000Y-96500000D02*
X161000000Y-96500000D01*
D12*
X162170000Y-103970000D02*
G75*
G03X162170000Y-103970000I-250000J0D01*
G01*
X161330025Y-103570000D02*
X153520000Y-103570000D01*
X153520000Y-103570000D02*
X153520000Y-109370000D01*
X153520000Y-109370000D02*
X161320000Y-109370000D01*
X161320000Y-109370000D02*
X161320000Y-103569923D01*
X172720000Y-100330000D02*
X172720000Y-113030000D01*
X172720000Y-113030000D02*
X170180000Y-113030000D01*
X170180000Y-113030000D02*
X170180000Y-100330000D01*
X173000000Y-97510000D02*
X173000000Y-99060000D01*
X172720000Y-100330000D02*
X170180000Y-100330000D01*
X169900000Y-99060000D02*
X169900000Y-97510000D01*
X169900000Y-97510000D02*
X173000000Y-97510000D01*
X170759524Y-96877143D02*
X170711905Y-96924762D01*
X170569048Y-96972381D01*
X170473810Y-96972381D01*
X170330952Y-96924762D01*
X170235714Y-96829524D01*
X170188095Y-96734286D01*
X170140476Y-96543810D01*
X170140476Y-96400952D01*
X170188095Y-96210476D01*
X170235714Y-96115238D01*
X170330952Y-96020000D01*
X170473810Y-95972381D01*
X170569048Y-95972381D01*
X170711905Y-96020000D01*
X170759524Y-96067619D01*
X171188095Y-96972381D02*
X171188095Y-95972381D01*
X171759524Y-96972381D01*
X171759524Y-95972381D01*
X172188095Y-96067619D02*
X172235714Y-96020000D01*
X172330952Y-95972381D01*
X172569048Y-95972381D01*
X172664286Y-96020000D01*
X172711905Y-96067619D01*
X172759524Y-96162857D01*
X172759524Y-96258095D01*
X172711905Y-96400952D01*
X172140476Y-96972381D01*
X172759524Y-96972381D01*
M02*
