G04 #@! TF.FileFunction,Copper,L1,Top,Signal*
%FSLAX46Y46*%
G04 Gerber Fmt 4.6, Leading zero omitted, Abs format (unit mm)*
G04 Created by KiCad (PCBNEW 4.0.4-stable) date *
%MOMM*%
%LPD*%
G01*
G04 APERTURE LIST*
%ADD10C,0.100000*%
%ADD11R,1.600000X0.300000*%
%ADD12C,0.600000*%
%ADD13R,2.000000X0.800000*%
%ADD14R,2.032000X1.727200*%
%ADD15O,2.032000X1.727200*%
%ADD16C,1.500000*%
%ADD17C,0.500000*%
%ADD18C,0.250000*%
%ADD19C,0.254000*%
G04 APERTURE END LIST*
D10*
D11*
X160020000Y-104220000D03*
X154820000Y-104220000D03*
X160020000Y-104720000D03*
X154820000Y-104720000D03*
X160020000Y-105220000D03*
X154820000Y-105220000D03*
X160020000Y-105720000D03*
X154820000Y-105720000D03*
X160020000Y-106220000D03*
X154820000Y-106220000D03*
X160020000Y-106720000D03*
X154820000Y-106720000D03*
X160020000Y-107220000D03*
X154820000Y-107220000D03*
X160020000Y-107720000D03*
X154820000Y-107720000D03*
X160020000Y-108220000D03*
X154820000Y-108220000D03*
X160020000Y-108720000D03*
X154820000Y-108720000D03*
D12*
X155920000Y-103270000D03*
X155920000Y-109670000D03*
D13*
X157420000Y-110370000D03*
X157420000Y-102570000D03*
D14*
X171450000Y-99060000D03*
D15*
X171450000Y-101600000D03*
X171450000Y-104140000D03*
X171450000Y-106680000D03*
X171450000Y-109220000D03*
X171450000Y-111760000D03*
D16*
X152400000Y-99060000D03*
X163703000Y-106045000D03*
X148590000Y-102870000D03*
X165735000Y-104140000D03*
X165735000Y-106680000D03*
X165608000Y-109220000D03*
X150495000Y-110998000D03*
D17*
X151130000Y-101600000D02*
X151130000Y-100330000D01*
D18*
X151130000Y-104140000D02*
X151710000Y-104720000D01*
X151710000Y-104720000D02*
X154820000Y-104720000D01*
X151210000Y-104220000D02*
X154860000Y-104220000D01*
X151130000Y-104140000D02*
X151210000Y-104220000D01*
D17*
X151130000Y-101600000D02*
X151130000Y-104140000D01*
X152400000Y-99060000D02*
X151130000Y-100330000D01*
D18*
X163703000Y-106934000D02*
X163703000Y-107442000D01*
X163703000Y-107442000D02*
X163425000Y-107720000D01*
X163425000Y-107720000D02*
X161070000Y-107720000D01*
X161070000Y-107720000D02*
X160020000Y-107720000D01*
D17*
X163703000Y-106045000D02*
X163703000Y-106934000D01*
D18*
X151630000Y-106750000D02*
X153800000Y-106750000D01*
X153810000Y-106720000D02*
X154820000Y-106720000D01*
X151140000Y-106220000D02*
X151630000Y-106710000D01*
X151140000Y-105720000D02*
X151140000Y-106220000D01*
X151140000Y-105720000D02*
X151440000Y-105720000D01*
D17*
X148590000Y-105590000D02*
X148720000Y-105720000D01*
D18*
X151440000Y-105720000D02*
X154820000Y-105720000D01*
D17*
X148590000Y-102870000D02*
X148590000Y-105590000D01*
D18*
X148720000Y-105720000D02*
X151140000Y-105720000D01*
D17*
X165735000Y-104140000D02*
X165027894Y-104140000D01*
X165027894Y-104140000D02*
X164447894Y-104720000D01*
D18*
X164447894Y-104720000D02*
X161070000Y-104720000D01*
X161070000Y-104720000D02*
X160020000Y-104720000D01*
X164211000Y-108204000D02*
X161036000Y-108204000D01*
X161036000Y-108204000D02*
X161020000Y-108220000D01*
X161020000Y-108220000D02*
X160020000Y-108220000D01*
D17*
X165735000Y-106680000D02*
X164211000Y-108204000D01*
D18*
X163703000Y-109220000D02*
X163203000Y-108720000D01*
X163203000Y-108720000D02*
X160020000Y-108720000D01*
D17*
X165608000Y-109220000D02*
X163703000Y-109220000D01*
D18*
X151511000Y-108712000D02*
X154812000Y-108712000D01*
D17*
X150495000Y-109728000D02*
X151511000Y-108712000D01*
X150495000Y-110998000D02*
X150495000Y-109728000D01*
D18*
X154812000Y-108712000D02*
X154820000Y-108720000D01*
D19*
G36*
X181315000Y-117315000D02*
X112685000Y-117315000D01*
X112685000Y-114942619D01*
X113264613Y-114942619D01*
X113604155Y-115764372D01*
X114232321Y-116393636D01*
X115053481Y-116734611D01*
X115942619Y-116735387D01*
X116764372Y-116395845D01*
X117393636Y-115767679D01*
X117734611Y-114946519D01*
X117734875Y-114643599D01*
X157064699Y-114643599D01*
X157328281Y-115281515D01*
X157815918Y-115770004D01*
X158453373Y-116034699D01*
X159143599Y-116035301D01*
X159781515Y-115771719D01*
X160270004Y-115284082D01*
X160411792Y-114942619D01*
X176264613Y-114942619D01*
X176604155Y-115764372D01*
X177232321Y-116393636D01*
X178053481Y-116734611D01*
X178942619Y-116735387D01*
X179764372Y-116395845D01*
X180393636Y-115767679D01*
X180734611Y-114946519D01*
X180735387Y-114057381D01*
X180395845Y-113235628D01*
X179767679Y-112606364D01*
X178946519Y-112265389D01*
X178057381Y-112264613D01*
X177235628Y-112604155D01*
X176606364Y-113232321D01*
X176265389Y-114053481D01*
X176264613Y-114942619D01*
X160411792Y-114942619D01*
X160534699Y-114646627D01*
X160535301Y-113956401D01*
X160271719Y-113318485D01*
X159784082Y-112829996D01*
X159146627Y-112565301D01*
X158456401Y-112564699D01*
X157818485Y-112828281D01*
X157329996Y-113315918D01*
X157065301Y-113953373D01*
X157064699Y-114643599D01*
X117734875Y-114643599D01*
X117735387Y-114057381D01*
X117395845Y-113235628D01*
X116767679Y-112606364D01*
X115946519Y-112265389D01*
X115057381Y-112264613D01*
X114235628Y-112604155D01*
X113606364Y-113232321D01*
X113265389Y-114053481D01*
X113264613Y-114942619D01*
X112685000Y-114942619D01*
X112685000Y-111272285D01*
X149109760Y-111272285D01*
X149320169Y-111781515D01*
X149709436Y-112171461D01*
X150218298Y-112382759D01*
X150769285Y-112383240D01*
X151278515Y-112172831D01*
X151668461Y-111783564D01*
X151879759Y-111274702D01*
X151880240Y-110723715D01*
X151669831Y-110214485D01*
X151465141Y-110009438D01*
X152002579Y-109472000D01*
X153795611Y-109472000D01*
X154020000Y-109517440D01*
X154985132Y-109517440D01*
X154984838Y-109855167D01*
X155126883Y-110198943D01*
X155389673Y-110462192D01*
X155733201Y-110604838D01*
X155772560Y-110604872D01*
X155772560Y-110770000D01*
X155816838Y-111005317D01*
X155955910Y-111221441D01*
X156168110Y-111366431D01*
X156420000Y-111417440D01*
X158420000Y-111417440D01*
X158655317Y-111373162D01*
X158871441Y-111234090D01*
X159016431Y-111021890D01*
X159067440Y-110770000D01*
X159067440Y-109970000D01*
X159023162Y-109734683D01*
X158884090Y-109518559D01*
X158671890Y-109373569D01*
X158420000Y-109322560D01*
X156788112Y-109322560D01*
X156713117Y-109141057D01*
X156450327Y-108877808D01*
X156267440Y-108801866D01*
X156267440Y-108570000D01*
X156247933Y-108466329D01*
X156267440Y-108370000D01*
X156267440Y-108070000D01*
X156247933Y-107966329D01*
X156267440Y-107870000D01*
X156267440Y-107570000D01*
X156247933Y-107466329D01*
X156267440Y-107370000D01*
X156267440Y-107070000D01*
X156254019Y-106998676D01*
X156255000Y-106996309D01*
X156255000Y-106953750D01*
X156243379Y-106942129D01*
X156223162Y-106834683D01*
X156149380Y-106720022D01*
X156216431Y-106621890D01*
X156241080Y-106500170D01*
X156255000Y-106486250D01*
X156255000Y-106443691D01*
X156253332Y-106439665D01*
X156267440Y-106370000D01*
X156267440Y-106070000D01*
X156254019Y-105998676D01*
X156255000Y-105996309D01*
X156255000Y-105953750D01*
X156243379Y-105942129D01*
X156223162Y-105834683D01*
X156149380Y-105720022D01*
X156216431Y-105621890D01*
X156241080Y-105500170D01*
X156255000Y-105486250D01*
X156255000Y-105443691D01*
X156253332Y-105439665D01*
X156267440Y-105370000D01*
X156267440Y-105070000D01*
X156247933Y-104966329D01*
X156267440Y-104870000D01*
X156267440Y-104570000D01*
X156247933Y-104466329D01*
X156267440Y-104370000D01*
X156267440Y-104138112D01*
X156432284Y-104070000D01*
X158572560Y-104070000D01*
X158572560Y-104370000D01*
X158592067Y-104473671D01*
X158572560Y-104570000D01*
X158572560Y-104870000D01*
X158592067Y-104973671D01*
X158572560Y-105070000D01*
X158572560Y-105370000D01*
X158592067Y-105473671D01*
X158572560Y-105570000D01*
X158572560Y-105870000D01*
X158592067Y-105973671D01*
X158572560Y-106070000D01*
X158572560Y-106370000D01*
X158592067Y-106473671D01*
X158572560Y-106570000D01*
X158572560Y-106870000D01*
X158592067Y-106973671D01*
X158572560Y-107070000D01*
X158572560Y-107370000D01*
X158585981Y-107441324D01*
X158585000Y-107443691D01*
X158585000Y-107486250D01*
X158596621Y-107497871D01*
X158616838Y-107605317D01*
X158690620Y-107719978D01*
X158623569Y-107818110D01*
X158598920Y-107939830D01*
X158585000Y-107953750D01*
X158585000Y-107996309D01*
X158586668Y-108000335D01*
X158572560Y-108070000D01*
X158572560Y-108370000D01*
X158592067Y-108473671D01*
X158572560Y-108570000D01*
X158572560Y-108870000D01*
X158616838Y-109105317D01*
X158755910Y-109321441D01*
X158968110Y-109466431D01*
X159220000Y-109517440D01*
X160820000Y-109517440D01*
X161018976Y-109480000D01*
X162869717Y-109480000D01*
X162885367Y-109558675D01*
X163077210Y-109845790D01*
X163364325Y-110037633D01*
X163703000Y-110105000D01*
X164534477Y-110105000D01*
X164822436Y-110393461D01*
X165331298Y-110604759D01*
X165882285Y-110605240D01*
X166391515Y-110394831D01*
X166781461Y-110005564D01*
X166992759Y-109496702D01*
X166993240Y-108945715D01*
X166782831Y-108436485D01*
X166393564Y-108046539D01*
X166224473Y-107976326D01*
X166518515Y-107854831D01*
X166908461Y-107465564D01*
X167119759Y-106956702D01*
X167120240Y-106405715D01*
X166909831Y-105896485D01*
X166520564Y-105506539D01*
X166288130Y-105410024D01*
X166518515Y-105314831D01*
X166908461Y-104925564D01*
X167119759Y-104416702D01*
X167120000Y-104140000D01*
X169766655Y-104140000D01*
X169880729Y-104713489D01*
X170205585Y-105199670D01*
X170520366Y-105410000D01*
X170205585Y-105620330D01*
X169880729Y-106106511D01*
X169766655Y-106680000D01*
X169880729Y-107253489D01*
X170205585Y-107739670D01*
X170520366Y-107950000D01*
X170205585Y-108160330D01*
X169880729Y-108646511D01*
X169766655Y-109220000D01*
X169880729Y-109793489D01*
X170205585Y-110279670D01*
X170520366Y-110490000D01*
X170205585Y-110700330D01*
X169880729Y-111186511D01*
X169766655Y-111760000D01*
X169880729Y-112333489D01*
X170205585Y-112819670D01*
X170691766Y-113144526D01*
X171265255Y-113258600D01*
X171634745Y-113258600D01*
X172208234Y-113144526D01*
X172694415Y-112819670D01*
X173019271Y-112333489D01*
X173133345Y-111760000D01*
X173019271Y-111186511D01*
X172694415Y-110700330D01*
X172379634Y-110490000D01*
X172694415Y-110279670D01*
X173019271Y-109793489D01*
X173133345Y-109220000D01*
X173019271Y-108646511D01*
X172694415Y-108160330D01*
X172379634Y-107950000D01*
X172694415Y-107739670D01*
X173019271Y-107253489D01*
X173133345Y-106680000D01*
X173019271Y-106106511D01*
X172694415Y-105620330D01*
X172379634Y-105410000D01*
X172694415Y-105199670D01*
X173019271Y-104713489D01*
X173133345Y-104140000D01*
X173019271Y-103566511D01*
X172694415Y-103080330D01*
X172384931Y-102873539D01*
X172800732Y-102502036D01*
X173054709Y-101974791D01*
X173057358Y-101959026D01*
X172936217Y-101727000D01*
X171577000Y-101727000D01*
X171577000Y-101747000D01*
X171323000Y-101747000D01*
X171323000Y-101727000D01*
X169963783Y-101727000D01*
X169842642Y-101959026D01*
X169845291Y-101974791D01*
X170099268Y-102502036D01*
X170515069Y-102873539D01*
X170205585Y-103080330D01*
X169880729Y-103566511D01*
X169766655Y-104140000D01*
X167120000Y-104140000D01*
X167120240Y-103865715D01*
X166909831Y-103356485D01*
X166520564Y-102966539D01*
X166011702Y-102755241D01*
X165460715Y-102754760D01*
X164951485Y-102965169D01*
X164561539Y-103354436D01*
X164530941Y-103428124D01*
X164402104Y-103514210D01*
X164402102Y-103514213D01*
X163956314Y-103960000D01*
X161446742Y-103960000D01*
X161423162Y-103834683D01*
X161284090Y-103618559D01*
X161071890Y-103473569D01*
X160820000Y-103422560D01*
X159220000Y-103422560D01*
X158984683Y-103466838D01*
X158768559Y-103605910D01*
X158623569Y-103818110D01*
X158572560Y-104070000D01*
X156432284Y-104070000D01*
X156448943Y-104063117D01*
X156712192Y-103800327D01*
X156788134Y-103617440D01*
X158420000Y-103617440D01*
X158655317Y-103573162D01*
X158871441Y-103434090D01*
X159016431Y-103221890D01*
X159067440Y-102970000D01*
X159067440Y-102170000D01*
X159023162Y-101934683D01*
X158884090Y-101718559D01*
X158671890Y-101573569D01*
X158420000Y-101522560D01*
X156420000Y-101522560D01*
X156184683Y-101566838D01*
X155968559Y-101705910D01*
X155823569Y-101918110D01*
X155772560Y-102170000D01*
X155772560Y-102334871D01*
X155734833Y-102334838D01*
X155391057Y-102476883D01*
X155127808Y-102739673D01*
X154985162Y-103083201D01*
X154984866Y-103422560D01*
X154020000Y-103422560D01*
X153821024Y-103460000D01*
X152015000Y-103460000D01*
X152015000Y-100696580D01*
X152266695Y-100444884D01*
X152674285Y-100445240D01*
X153183515Y-100234831D01*
X153573461Y-99845564D01*
X153784759Y-99336702D01*
X153785240Y-98785715D01*
X153574831Y-98276485D01*
X153494886Y-98196400D01*
X169786560Y-98196400D01*
X169786560Y-99923600D01*
X169830838Y-100158917D01*
X169969910Y-100375041D01*
X170182110Y-100520031D01*
X170276927Y-100539232D01*
X170099268Y-100697964D01*
X169845291Y-101225209D01*
X169842642Y-101240974D01*
X169963783Y-101473000D01*
X171323000Y-101473000D01*
X171323000Y-101453000D01*
X171577000Y-101453000D01*
X171577000Y-101473000D01*
X172936217Y-101473000D01*
X173057358Y-101240974D01*
X173054709Y-101225209D01*
X172800732Y-100697964D01*
X172625155Y-100541093D01*
X172701317Y-100526762D01*
X172917441Y-100387690D01*
X173062431Y-100175490D01*
X173113440Y-99923600D01*
X173113440Y-98196400D01*
X173069162Y-97961083D01*
X172930090Y-97744959D01*
X172717890Y-97599969D01*
X172466000Y-97548960D01*
X170434000Y-97548960D01*
X170198683Y-97593238D01*
X169982559Y-97732310D01*
X169837569Y-97944510D01*
X169786560Y-98196400D01*
X153494886Y-98196400D01*
X153185564Y-97886539D01*
X152676702Y-97675241D01*
X152125715Y-97674760D01*
X151616485Y-97885169D01*
X151226539Y-98274436D01*
X151015241Y-98783298D01*
X151014883Y-99193538D01*
X150504210Y-99704210D01*
X150312367Y-99991325D01*
X150312367Y-99991326D01*
X150244999Y-100330000D01*
X150245000Y-100330005D01*
X150245000Y-104140000D01*
X150312367Y-104478675D01*
X150504210Y-104765790D01*
X150791325Y-104957633D01*
X150893069Y-104977871D01*
X151172599Y-105257401D01*
X151419161Y-105422148D01*
X151710000Y-105480000D01*
X153385000Y-105480000D01*
X153385000Y-105486250D01*
X153396621Y-105497871D01*
X153416838Y-105605317D01*
X153490620Y-105719978D01*
X153423569Y-105818110D01*
X153398920Y-105939830D01*
X153385000Y-105953750D01*
X153385000Y-105996309D01*
X153386668Y-106000335D01*
X153372560Y-106070000D01*
X153372560Y-106370000D01*
X153385981Y-106441324D01*
X153385000Y-106443691D01*
X153385000Y-106486250D01*
X153396621Y-106497871D01*
X153416838Y-106605317D01*
X153490620Y-106719978D01*
X153423569Y-106818110D01*
X153398920Y-106939830D01*
X153385000Y-106953750D01*
X153385000Y-106996309D01*
X153386668Y-107000335D01*
X153372560Y-107070000D01*
X153372560Y-107370000D01*
X153392067Y-107473671D01*
X153372560Y-107570000D01*
X153372560Y-107870000D01*
X153387989Y-107952000D01*
X151935929Y-107952000D01*
X151849674Y-107894367D01*
X151511000Y-107826999D01*
X151172326Y-107894367D01*
X150885211Y-108086210D01*
X149869210Y-109102210D01*
X149677367Y-109389325D01*
X149677367Y-109389326D01*
X149609999Y-109728000D01*
X149610000Y-109728005D01*
X149610000Y-109924477D01*
X149321539Y-110212436D01*
X149110241Y-110721298D01*
X149109760Y-111272285D01*
X112685000Y-111272285D01*
X112685000Y-99043599D01*
X121464699Y-99043599D01*
X121728281Y-99681515D01*
X122215918Y-100170004D01*
X122853373Y-100434699D01*
X123543599Y-100435301D01*
X124181515Y-100171719D01*
X124670004Y-99684082D01*
X124934699Y-99046627D01*
X124935301Y-98356401D01*
X124671719Y-97718485D01*
X124184082Y-97229996D01*
X123546627Y-96965301D01*
X122856401Y-96964699D01*
X122218485Y-97228281D01*
X121729996Y-97715918D01*
X121465301Y-98353373D01*
X121464699Y-99043599D01*
X112685000Y-99043599D01*
X112685000Y-96942619D01*
X113264613Y-96942619D01*
X113604155Y-97764372D01*
X114232321Y-98393636D01*
X115053481Y-98734611D01*
X115942619Y-98735387D01*
X116764372Y-98395845D01*
X117393636Y-97767679D01*
X117734611Y-96946519D01*
X117734701Y-96842619D01*
X176264613Y-96842619D01*
X176604155Y-97664372D01*
X177232321Y-98293636D01*
X178053481Y-98634611D01*
X178942619Y-98635387D01*
X179764372Y-98295845D01*
X180393636Y-97667679D01*
X180734611Y-96846519D01*
X180735387Y-95957381D01*
X180395845Y-95135628D01*
X179767679Y-94506364D01*
X178946519Y-94165389D01*
X178057381Y-94164613D01*
X177235628Y-94504155D01*
X176606364Y-95132321D01*
X176265389Y-95953481D01*
X176264613Y-96842619D01*
X117734701Y-96842619D01*
X117735387Y-96057381D01*
X117395845Y-95235628D01*
X116767679Y-94606364D01*
X115946519Y-94265389D01*
X115057381Y-94264613D01*
X114235628Y-94604155D01*
X113606364Y-95232321D01*
X113265389Y-96053481D01*
X113264613Y-96942619D01*
X112685000Y-96942619D01*
X112685000Y-93685000D01*
X181315000Y-93685000D01*
X181315000Y-117315000D01*
X181315000Y-117315000D01*
G37*
X181315000Y-117315000D02*
X112685000Y-117315000D01*
X112685000Y-114942619D01*
X113264613Y-114942619D01*
X113604155Y-115764372D01*
X114232321Y-116393636D01*
X115053481Y-116734611D01*
X115942619Y-116735387D01*
X116764372Y-116395845D01*
X117393636Y-115767679D01*
X117734611Y-114946519D01*
X117734875Y-114643599D01*
X157064699Y-114643599D01*
X157328281Y-115281515D01*
X157815918Y-115770004D01*
X158453373Y-116034699D01*
X159143599Y-116035301D01*
X159781515Y-115771719D01*
X160270004Y-115284082D01*
X160411792Y-114942619D01*
X176264613Y-114942619D01*
X176604155Y-115764372D01*
X177232321Y-116393636D01*
X178053481Y-116734611D01*
X178942619Y-116735387D01*
X179764372Y-116395845D01*
X180393636Y-115767679D01*
X180734611Y-114946519D01*
X180735387Y-114057381D01*
X180395845Y-113235628D01*
X179767679Y-112606364D01*
X178946519Y-112265389D01*
X178057381Y-112264613D01*
X177235628Y-112604155D01*
X176606364Y-113232321D01*
X176265389Y-114053481D01*
X176264613Y-114942619D01*
X160411792Y-114942619D01*
X160534699Y-114646627D01*
X160535301Y-113956401D01*
X160271719Y-113318485D01*
X159784082Y-112829996D01*
X159146627Y-112565301D01*
X158456401Y-112564699D01*
X157818485Y-112828281D01*
X157329996Y-113315918D01*
X157065301Y-113953373D01*
X157064699Y-114643599D01*
X117734875Y-114643599D01*
X117735387Y-114057381D01*
X117395845Y-113235628D01*
X116767679Y-112606364D01*
X115946519Y-112265389D01*
X115057381Y-112264613D01*
X114235628Y-112604155D01*
X113606364Y-113232321D01*
X113265389Y-114053481D01*
X113264613Y-114942619D01*
X112685000Y-114942619D01*
X112685000Y-111272285D01*
X149109760Y-111272285D01*
X149320169Y-111781515D01*
X149709436Y-112171461D01*
X150218298Y-112382759D01*
X150769285Y-112383240D01*
X151278515Y-112172831D01*
X151668461Y-111783564D01*
X151879759Y-111274702D01*
X151880240Y-110723715D01*
X151669831Y-110214485D01*
X151465141Y-110009438D01*
X152002579Y-109472000D01*
X153795611Y-109472000D01*
X154020000Y-109517440D01*
X154985132Y-109517440D01*
X154984838Y-109855167D01*
X155126883Y-110198943D01*
X155389673Y-110462192D01*
X155733201Y-110604838D01*
X155772560Y-110604872D01*
X155772560Y-110770000D01*
X155816838Y-111005317D01*
X155955910Y-111221441D01*
X156168110Y-111366431D01*
X156420000Y-111417440D01*
X158420000Y-111417440D01*
X158655317Y-111373162D01*
X158871441Y-111234090D01*
X159016431Y-111021890D01*
X159067440Y-110770000D01*
X159067440Y-109970000D01*
X159023162Y-109734683D01*
X158884090Y-109518559D01*
X158671890Y-109373569D01*
X158420000Y-109322560D01*
X156788112Y-109322560D01*
X156713117Y-109141057D01*
X156450327Y-108877808D01*
X156267440Y-108801866D01*
X156267440Y-108570000D01*
X156247933Y-108466329D01*
X156267440Y-108370000D01*
X156267440Y-108070000D01*
X156247933Y-107966329D01*
X156267440Y-107870000D01*
X156267440Y-107570000D01*
X156247933Y-107466329D01*
X156267440Y-107370000D01*
X156267440Y-107070000D01*
X156254019Y-106998676D01*
X156255000Y-106996309D01*
X156255000Y-106953750D01*
X156243379Y-106942129D01*
X156223162Y-106834683D01*
X156149380Y-106720022D01*
X156216431Y-106621890D01*
X156241080Y-106500170D01*
X156255000Y-106486250D01*
X156255000Y-106443691D01*
X156253332Y-106439665D01*
X156267440Y-106370000D01*
X156267440Y-106070000D01*
X156254019Y-105998676D01*
X156255000Y-105996309D01*
X156255000Y-105953750D01*
X156243379Y-105942129D01*
X156223162Y-105834683D01*
X156149380Y-105720022D01*
X156216431Y-105621890D01*
X156241080Y-105500170D01*
X156255000Y-105486250D01*
X156255000Y-105443691D01*
X156253332Y-105439665D01*
X156267440Y-105370000D01*
X156267440Y-105070000D01*
X156247933Y-104966329D01*
X156267440Y-104870000D01*
X156267440Y-104570000D01*
X156247933Y-104466329D01*
X156267440Y-104370000D01*
X156267440Y-104138112D01*
X156432284Y-104070000D01*
X158572560Y-104070000D01*
X158572560Y-104370000D01*
X158592067Y-104473671D01*
X158572560Y-104570000D01*
X158572560Y-104870000D01*
X158592067Y-104973671D01*
X158572560Y-105070000D01*
X158572560Y-105370000D01*
X158592067Y-105473671D01*
X158572560Y-105570000D01*
X158572560Y-105870000D01*
X158592067Y-105973671D01*
X158572560Y-106070000D01*
X158572560Y-106370000D01*
X158592067Y-106473671D01*
X158572560Y-106570000D01*
X158572560Y-106870000D01*
X158592067Y-106973671D01*
X158572560Y-107070000D01*
X158572560Y-107370000D01*
X158585981Y-107441324D01*
X158585000Y-107443691D01*
X158585000Y-107486250D01*
X158596621Y-107497871D01*
X158616838Y-107605317D01*
X158690620Y-107719978D01*
X158623569Y-107818110D01*
X158598920Y-107939830D01*
X158585000Y-107953750D01*
X158585000Y-107996309D01*
X158586668Y-108000335D01*
X158572560Y-108070000D01*
X158572560Y-108370000D01*
X158592067Y-108473671D01*
X158572560Y-108570000D01*
X158572560Y-108870000D01*
X158616838Y-109105317D01*
X158755910Y-109321441D01*
X158968110Y-109466431D01*
X159220000Y-109517440D01*
X160820000Y-109517440D01*
X161018976Y-109480000D01*
X162869717Y-109480000D01*
X162885367Y-109558675D01*
X163077210Y-109845790D01*
X163364325Y-110037633D01*
X163703000Y-110105000D01*
X164534477Y-110105000D01*
X164822436Y-110393461D01*
X165331298Y-110604759D01*
X165882285Y-110605240D01*
X166391515Y-110394831D01*
X166781461Y-110005564D01*
X166992759Y-109496702D01*
X166993240Y-108945715D01*
X166782831Y-108436485D01*
X166393564Y-108046539D01*
X166224473Y-107976326D01*
X166518515Y-107854831D01*
X166908461Y-107465564D01*
X167119759Y-106956702D01*
X167120240Y-106405715D01*
X166909831Y-105896485D01*
X166520564Y-105506539D01*
X166288130Y-105410024D01*
X166518515Y-105314831D01*
X166908461Y-104925564D01*
X167119759Y-104416702D01*
X167120000Y-104140000D01*
X169766655Y-104140000D01*
X169880729Y-104713489D01*
X170205585Y-105199670D01*
X170520366Y-105410000D01*
X170205585Y-105620330D01*
X169880729Y-106106511D01*
X169766655Y-106680000D01*
X169880729Y-107253489D01*
X170205585Y-107739670D01*
X170520366Y-107950000D01*
X170205585Y-108160330D01*
X169880729Y-108646511D01*
X169766655Y-109220000D01*
X169880729Y-109793489D01*
X170205585Y-110279670D01*
X170520366Y-110490000D01*
X170205585Y-110700330D01*
X169880729Y-111186511D01*
X169766655Y-111760000D01*
X169880729Y-112333489D01*
X170205585Y-112819670D01*
X170691766Y-113144526D01*
X171265255Y-113258600D01*
X171634745Y-113258600D01*
X172208234Y-113144526D01*
X172694415Y-112819670D01*
X173019271Y-112333489D01*
X173133345Y-111760000D01*
X173019271Y-111186511D01*
X172694415Y-110700330D01*
X172379634Y-110490000D01*
X172694415Y-110279670D01*
X173019271Y-109793489D01*
X173133345Y-109220000D01*
X173019271Y-108646511D01*
X172694415Y-108160330D01*
X172379634Y-107950000D01*
X172694415Y-107739670D01*
X173019271Y-107253489D01*
X173133345Y-106680000D01*
X173019271Y-106106511D01*
X172694415Y-105620330D01*
X172379634Y-105410000D01*
X172694415Y-105199670D01*
X173019271Y-104713489D01*
X173133345Y-104140000D01*
X173019271Y-103566511D01*
X172694415Y-103080330D01*
X172384931Y-102873539D01*
X172800732Y-102502036D01*
X173054709Y-101974791D01*
X173057358Y-101959026D01*
X172936217Y-101727000D01*
X171577000Y-101727000D01*
X171577000Y-101747000D01*
X171323000Y-101747000D01*
X171323000Y-101727000D01*
X169963783Y-101727000D01*
X169842642Y-101959026D01*
X169845291Y-101974791D01*
X170099268Y-102502036D01*
X170515069Y-102873539D01*
X170205585Y-103080330D01*
X169880729Y-103566511D01*
X169766655Y-104140000D01*
X167120000Y-104140000D01*
X167120240Y-103865715D01*
X166909831Y-103356485D01*
X166520564Y-102966539D01*
X166011702Y-102755241D01*
X165460715Y-102754760D01*
X164951485Y-102965169D01*
X164561539Y-103354436D01*
X164530941Y-103428124D01*
X164402104Y-103514210D01*
X164402102Y-103514213D01*
X163956314Y-103960000D01*
X161446742Y-103960000D01*
X161423162Y-103834683D01*
X161284090Y-103618559D01*
X161071890Y-103473569D01*
X160820000Y-103422560D01*
X159220000Y-103422560D01*
X158984683Y-103466838D01*
X158768559Y-103605910D01*
X158623569Y-103818110D01*
X158572560Y-104070000D01*
X156432284Y-104070000D01*
X156448943Y-104063117D01*
X156712192Y-103800327D01*
X156788134Y-103617440D01*
X158420000Y-103617440D01*
X158655317Y-103573162D01*
X158871441Y-103434090D01*
X159016431Y-103221890D01*
X159067440Y-102970000D01*
X159067440Y-102170000D01*
X159023162Y-101934683D01*
X158884090Y-101718559D01*
X158671890Y-101573569D01*
X158420000Y-101522560D01*
X156420000Y-101522560D01*
X156184683Y-101566838D01*
X155968559Y-101705910D01*
X155823569Y-101918110D01*
X155772560Y-102170000D01*
X155772560Y-102334871D01*
X155734833Y-102334838D01*
X155391057Y-102476883D01*
X155127808Y-102739673D01*
X154985162Y-103083201D01*
X154984866Y-103422560D01*
X154020000Y-103422560D01*
X153821024Y-103460000D01*
X152015000Y-103460000D01*
X152015000Y-100696580D01*
X152266695Y-100444884D01*
X152674285Y-100445240D01*
X153183515Y-100234831D01*
X153573461Y-99845564D01*
X153784759Y-99336702D01*
X153785240Y-98785715D01*
X153574831Y-98276485D01*
X153494886Y-98196400D01*
X169786560Y-98196400D01*
X169786560Y-99923600D01*
X169830838Y-100158917D01*
X169969910Y-100375041D01*
X170182110Y-100520031D01*
X170276927Y-100539232D01*
X170099268Y-100697964D01*
X169845291Y-101225209D01*
X169842642Y-101240974D01*
X169963783Y-101473000D01*
X171323000Y-101473000D01*
X171323000Y-101453000D01*
X171577000Y-101453000D01*
X171577000Y-101473000D01*
X172936217Y-101473000D01*
X173057358Y-101240974D01*
X173054709Y-101225209D01*
X172800732Y-100697964D01*
X172625155Y-100541093D01*
X172701317Y-100526762D01*
X172917441Y-100387690D01*
X173062431Y-100175490D01*
X173113440Y-99923600D01*
X173113440Y-98196400D01*
X173069162Y-97961083D01*
X172930090Y-97744959D01*
X172717890Y-97599969D01*
X172466000Y-97548960D01*
X170434000Y-97548960D01*
X170198683Y-97593238D01*
X169982559Y-97732310D01*
X169837569Y-97944510D01*
X169786560Y-98196400D01*
X153494886Y-98196400D01*
X153185564Y-97886539D01*
X152676702Y-97675241D01*
X152125715Y-97674760D01*
X151616485Y-97885169D01*
X151226539Y-98274436D01*
X151015241Y-98783298D01*
X151014883Y-99193538D01*
X150504210Y-99704210D01*
X150312367Y-99991325D01*
X150312367Y-99991326D01*
X150244999Y-100330000D01*
X150245000Y-100330005D01*
X150245000Y-104140000D01*
X150312367Y-104478675D01*
X150504210Y-104765790D01*
X150791325Y-104957633D01*
X150893069Y-104977871D01*
X151172599Y-105257401D01*
X151419161Y-105422148D01*
X151710000Y-105480000D01*
X153385000Y-105480000D01*
X153385000Y-105486250D01*
X153396621Y-105497871D01*
X153416838Y-105605317D01*
X153490620Y-105719978D01*
X153423569Y-105818110D01*
X153398920Y-105939830D01*
X153385000Y-105953750D01*
X153385000Y-105996309D01*
X153386668Y-106000335D01*
X153372560Y-106070000D01*
X153372560Y-106370000D01*
X153385981Y-106441324D01*
X153385000Y-106443691D01*
X153385000Y-106486250D01*
X153396621Y-106497871D01*
X153416838Y-106605317D01*
X153490620Y-106719978D01*
X153423569Y-106818110D01*
X153398920Y-106939830D01*
X153385000Y-106953750D01*
X153385000Y-106996309D01*
X153386668Y-107000335D01*
X153372560Y-107070000D01*
X153372560Y-107370000D01*
X153392067Y-107473671D01*
X153372560Y-107570000D01*
X153372560Y-107870000D01*
X153387989Y-107952000D01*
X151935929Y-107952000D01*
X151849674Y-107894367D01*
X151511000Y-107826999D01*
X151172326Y-107894367D01*
X150885211Y-108086210D01*
X149869210Y-109102210D01*
X149677367Y-109389325D01*
X149677367Y-109389326D01*
X149609999Y-109728000D01*
X149610000Y-109728005D01*
X149610000Y-109924477D01*
X149321539Y-110212436D01*
X149110241Y-110721298D01*
X149109760Y-111272285D01*
X112685000Y-111272285D01*
X112685000Y-99043599D01*
X121464699Y-99043599D01*
X121728281Y-99681515D01*
X122215918Y-100170004D01*
X122853373Y-100434699D01*
X123543599Y-100435301D01*
X124181515Y-100171719D01*
X124670004Y-99684082D01*
X124934699Y-99046627D01*
X124935301Y-98356401D01*
X124671719Y-97718485D01*
X124184082Y-97229996D01*
X123546627Y-96965301D01*
X122856401Y-96964699D01*
X122218485Y-97228281D01*
X121729996Y-97715918D01*
X121465301Y-98353373D01*
X121464699Y-99043599D01*
X112685000Y-99043599D01*
X112685000Y-96942619D01*
X113264613Y-96942619D01*
X113604155Y-97764372D01*
X114232321Y-98393636D01*
X115053481Y-98734611D01*
X115942619Y-98735387D01*
X116764372Y-98395845D01*
X117393636Y-97767679D01*
X117734611Y-96946519D01*
X117734701Y-96842619D01*
X176264613Y-96842619D01*
X176604155Y-97664372D01*
X177232321Y-98293636D01*
X178053481Y-98634611D01*
X178942619Y-98635387D01*
X179764372Y-98295845D01*
X180393636Y-97667679D01*
X180734611Y-96846519D01*
X180735387Y-95957381D01*
X180395845Y-95135628D01*
X179767679Y-94506364D01*
X178946519Y-94165389D01*
X178057381Y-94164613D01*
X177235628Y-94504155D01*
X176606364Y-95132321D01*
X176265389Y-95953481D01*
X176264613Y-96842619D01*
X117734701Y-96842619D01*
X117735387Y-96057381D01*
X117395845Y-95235628D01*
X116767679Y-94606364D01*
X115946519Y-94265389D01*
X115057381Y-94264613D01*
X114235628Y-94604155D01*
X113606364Y-95232321D01*
X113265389Y-96053481D01*
X113264613Y-96942619D01*
X112685000Y-96942619D01*
X112685000Y-93685000D01*
X181315000Y-93685000D01*
X181315000Y-117315000D01*
G36*
X165181870Y-105409976D02*
X164951485Y-105505169D01*
X164561539Y-105894436D01*
X164350241Y-106403298D01*
X164349883Y-106813538D01*
X163719420Y-107444000D01*
X161455000Y-107444000D01*
X161455000Y-107443691D01*
X161453332Y-107439665D01*
X161467440Y-107370000D01*
X161467440Y-107070000D01*
X161447933Y-106966329D01*
X161467440Y-106870000D01*
X161467440Y-106570000D01*
X161447933Y-106466329D01*
X161467440Y-106370000D01*
X161467440Y-106070000D01*
X161447933Y-105966329D01*
X161467440Y-105870000D01*
X161467440Y-105570000D01*
X161450505Y-105480000D01*
X164022965Y-105480000D01*
X164109220Y-105537633D01*
X164447894Y-105605001D01*
X164786568Y-105537633D01*
X165055904Y-105357670D01*
X165181870Y-105409976D01*
X165181870Y-105409976D01*
G37*
X165181870Y-105409976D02*
X164951485Y-105505169D01*
X164561539Y-105894436D01*
X164350241Y-106403298D01*
X164349883Y-106813538D01*
X163719420Y-107444000D01*
X161455000Y-107444000D01*
X161455000Y-107443691D01*
X161453332Y-107439665D01*
X161467440Y-107370000D01*
X161467440Y-107070000D01*
X161447933Y-106966329D01*
X161467440Y-106870000D01*
X161467440Y-106570000D01*
X161447933Y-106466329D01*
X161467440Y-106370000D01*
X161467440Y-106070000D01*
X161447933Y-105966329D01*
X161467440Y-105870000D01*
X161467440Y-105570000D01*
X161450505Y-105480000D01*
X164022965Y-105480000D01*
X164109220Y-105537633D01*
X164447894Y-105605001D01*
X164786568Y-105537633D01*
X165055904Y-105357670D01*
X165181870Y-105409976D01*
M02*
