G04 #@! TF.FileFunction,Copper,L1,Top,Signal*
%FSLAX46Y46*%
G04 Gerber Fmt 4.6, Leading zero omitted, Abs format (unit mm)*
G04 Created by KiCad (PCBNEW 4.0.4-stable) date *
%MOMM*%
%LPD*%
G01*
G04 APERTURE LIST*
%ADD10C,0.100000*%
%ADD11R,1.600000X0.300000*%
%ADD12C,0.600000*%
%ADD13R,2.032000X1.727200*%
%ADD14O,2.032000X1.727200*%
%ADD15C,1.500000*%
%ADD16C,0.500000*%
%ADD17C,0.250000*%
G04 APERTURE END LIST*
D10*
D11*
X160020000Y-104220000D03*
X154820000Y-104220000D03*
X160020000Y-104720000D03*
X154820000Y-104720000D03*
X160020000Y-105220000D03*
X154820000Y-105220000D03*
X160020000Y-105720000D03*
X154820000Y-105720000D03*
X160020000Y-106220000D03*
X154820000Y-106220000D03*
X160020000Y-106720000D03*
X154820000Y-106720000D03*
X160020000Y-107220000D03*
X154820000Y-107220000D03*
X160020000Y-107720000D03*
X154820000Y-107720000D03*
X160020000Y-108220000D03*
X154820000Y-108220000D03*
X160020000Y-108720000D03*
X154820000Y-108720000D03*
D12*
X155920000Y-103270000D03*
X155920000Y-109670000D03*
D13*
X171450000Y-99060000D03*
D14*
X171450000Y-101600000D03*
X171450000Y-104140000D03*
X171450000Y-106680000D03*
X171450000Y-109220000D03*
X171450000Y-111760000D03*
D15*
X152400000Y-99060000D03*
X163703000Y-106045000D03*
X148590000Y-102870000D03*
X165735000Y-104140000D03*
X165735000Y-106680000D03*
X165608000Y-109220000D03*
X150495000Y-110998000D03*
D16*
X151130000Y-101600000D02*
X151130000Y-100330000D01*
D17*
X151130000Y-104140000D02*
X151710000Y-104720000D01*
X151710000Y-104720000D02*
X154820000Y-104720000D01*
X151210000Y-104220000D02*
X154860000Y-104220000D01*
X151130000Y-104140000D02*
X151210000Y-104220000D01*
D16*
X151130000Y-101600000D02*
X151130000Y-104140000D01*
X152400000Y-99060000D02*
X151130000Y-100330000D01*
D17*
X163703000Y-106934000D02*
X163703000Y-107442000D01*
X163703000Y-107442000D02*
X163425000Y-107720000D01*
X163425000Y-107720000D02*
X161070000Y-107720000D01*
X161070000Y-107720000D02*
X160020000Y-107720000D01*
D16*
X163703000Y-106045000D02*
X163703000Y-106934000D01*
D17*
X151630000Y-106750000D02*
X153800000Y-106750000D01*
X153810000Y-106720000D02*
X154820000Y-106720000D01*
X151140000Y-106220000D02*
X151630000Y-106710000D01*
X151140000Y-105720000D02*
X151140000Y-106220000D01*
X151140000Y-105720000D02*
X151440000Y-105720000D01*
D16*
X148590000Y-105590000D02*
X148720000Y-105720000D01*
D17*
X151440000Y-105720000D02*
X154820000Y-105720000D01*
D16*
X148590000Y-102870000D02*
X148590000Y-105590000D01*
D17*
X148720000Y-105720000D02*
X151140000Y-105720000D01*
D16*
X165735000Y-104140000D02*
X165027894Y-104140000D01*
X165027894Y-104140000D02*
X164447894Y-104720000D01*
D17*
X164447894Y-104720000D02*
X161070000Y-104720000D01*
X161070000Y-104720000D02*
X160020000Y-104720000D01*
X164211000Y-108204000D02*
X161036000Y-108204000D01*
X161036000Y-108204000D02*
X161020000Y-108220000D01*
X161020000Y-108220000D02*
X160020000Y-108220000D01*
D16*
X165735000Y-106680000D02*
X164211000Y-108204000D01*
D17*
X163703000Y-109220000D02*
X163203000Y-108720000D01*
X163203000Y-108720000D02*
X160020000Y-108720000D01*
D16*
X165608000Y-109220000D02*
X163703000Y-109220000D01*
D17*
X151511000Y-108712000D02*
X154812000Y-108712000D01*
D16*
X150495000Y-109728000D02*
X151511000Y-108712000D01*
X150495000Y-110998000D02*
X150495000Y-109728000D01*
D17*
X154812000Y-108712000D02*
X154820000Y-108720000D01*
M02*
