%FSLAX45Y45*%
G04 Gerber Fmt 4.5, Leading zero omitted, Abs format (unit mm)*
G04 Created by KiCad (PCBNEW 4.0.4-stable) date *
%MOMM*%
%LPD*%
G01*
G04 APERTURE LIST*
%ADD10C,0.127000*%
%ADD11C,0.100000*%
%ADD12C,0.200000*%
%ADD13C,0.300000*%
G04 APERTURE END LIST*
D10*
D11*
X17600000Y-9500000D02*
X14600000Y-9500000D01*
X17600000Y-11750000D02*
X17600000Y-9500000D01*
X14600000Y-11750000D02*
X17600000Y-11750000D01*
X14600000Y-9500000D02*
X14600000Y-11750000D01*
D12*
X14829000Y-10257000D02*
X14889000Y-10317000D01*
X14889000Y-10257000D02*
X14829000Y-10317000D01*
X15019500Y-11069800D02*
X15079500Y-11129800D01*
X15079500Y-11069800D02*
X15019500Y-11129800D01*
X15210000Y-9876000D02*
X15270000Y-9936000D01*
X15270000Y-9876000D02*
X15210000Y-9936000D01*
X15562000Y-10297000D02*
X15622000Y-10357000D01*
X15622000Y-10297000D02*
X15562000Y-10357000D01*
X15562000Y-10937000D02*
X15622000Y-10997000D01*
X15622000Y-10937000D02*
X15562000Y-10997000D01*
X16340300Y-10574500D02*
X16400300Y-10634500D01*
X16400300Y-10574500D02*
X16340300Y-10634500D01*
X16530800Y-10892000D02*
X16590800Y-10952000D01*
X16590800Y-10892000D02*
X16530800Y-10952000D01*
X16543500Y-10384000D02*
X16603500Y-10444000D01*
X16603500Y-10384000D02*
X16543500Y-10444000D01*
X16543500Y-10638000D02*
X16603500Y-10698000D01*
X16603500Y-10638000D02*
X16543500Y-10698000D01*
X17195800Y-9906000D02*
G75*
G03X17195800Y-9906000I-50800J0D01*
G01*
X17195800Y-10160000D02*
G75*
G03X17195800Y-10160000I-50800J0D01*
G01*
X17195800Y-10414000D02*
G75*
G03X17195800Y-10414000I-50800J0D01*
G01*
X17195800Y-10668000D02*
G75*
G03X17195800Y-10668000I-50800J0D01*
G01*
X17195800Y-10922000D02*
G75*
G03X17195800Y-10922000I-50800J0D01*
G01*
X17195800Y-11176000D02*
G75*
G03X17195800Y-11176000I-50800J0D01*
G01*
D13*
X14866428Y-12220714D02*
X14866428Y-11920714D01*
X14937857Y-11920714D01*
X14980714Y-11935000D01*
X15009286Y-11963571D01*
X15023571Y-11992143D01*
X15037857Y-12049286D01*
X15037857Y-12092143D01*
X15023571Y-12149286D01*
X15009286Y-12177857D01*
X14980714Y-12206429D01*
X14937857Y-12220714D01*
X14866428Y-12220714D01*
X15166428Y-12220714D02*
X15166428Y-12020714D01*
X15166428Y-12077857D02*
X15180714Y-12049286D01*
X15195000Y-12035000D01*
X15223571Y-12020714D01*
X15252143Y-12020714D01*
X15352143Y-12220714D02*
X15352143Y-12020714D01*
X15352143Y-11920714D02*
X15337857Y-11935000D01*
X15352143Y-11949286D01*
X15366428Y-11935000D01*
X15352143Y-11920714D01*
X15352143Y-11949286D01*
X15537857Y-12220714D02*
X15509286Y-12206429D01*
X15495000Y-12177857D01*
X15495000Y-11920714D01*
X15695000Y-12220714D02*
X15666428Y-12206429D01*
X15652143Y-12177857D01*
X15652143Y-11920714D01*
X16037857Y-12220714D02*
X16037857Y-11920714D01*
X16137857Y-12135000D01*
X16237857Y-11920714D01*
X16237857Y-12220714D01*
X16509286Y-12220714D02*
X16509286Y-12063571D01*
X16495000Y-12035000D01*
X16466428Y-12020714D01*
X16409286Y-12020714D01*
X16380714Y-12035000D01*
X16509286Y-12206429D02*
X16480714Y-12220714D01*
X16409286Y-12220714D01*
X16380714Y-12206429D01*
X16366428Y-12177857D01*
X16366428Y-12149286D01*
X16380714Y-12120714D01*
X16409286Y-12106429D01*
X16480714Y-12106429D01*
X16509286Y-12092143D01*
X16652143Y-12020714D02*
X16652143Y-12320714D01*
X16652143Y-12035000D02*
X16680714Y-12020714D01*
X16737857Y-12020714D01*
X16766428Y-12035000D01*
X16780714Y-12049286D01*
X16795000Y-12077857D01*
X16795000Y-12163571D01*
X16780714Y-12192143D01*
X16766428Y-12206429D01*
X16737857Y-12220714D01*
X16680714Y-12220714D01*
X16652143Y-12206429D01*
X16923571Y-12192143D02*
X16937857Y-12206429D01*
X16923571Y-12220714D01*
X16909286Y-12206429D01*
X16923571Y-12192143D01*
X16923571Y-12220714D01*
X16923571Y-12035000D02*
X16937857Y-12049286D01*
X16923571Y-12063571D01*
X16909286Y-12049286D01*
X16923571Y-12035000D01*
X16923571Y-12063571D01*
X14535000Y-12685000D02*
X14595000Y-12745000D01*
X14595000Y-12685000D02*
X14535000Y-12745000D01*
X14923571Y-12550714D02*
X14952143Y-12550714D01*
X14980714Y-12565000D01*
X14995000Y-12579286D01*
X15009286Y-12607857D01*
X15023571Y-12665000D01*
X15023571Y-12736429D01*
X15009286Y-12793571D01*
X14995000Y-12822143D01*
X14980714Y-12836429D01*
X14952143Y-12850714D01*
X14923571Y-12850714D01*
X14895000Y-12836429D01*
X14880714Y-12822143D01*
X14866428Y-12793571D01*
X14852143Y-12736429D01*
X14852143Y-12665000D01*
X14866428Y-12607857D01*
X14880714Y-12579286D01*
X14895000Y-12565000D01*
X14923571Y-12550714D01*
X15152143Y-12822143D02*
X15166428Y-12836429D01*
X15152143Y-12850714D01*
X15137857Y-12836429D01*
X15152143Y-12822143D01*
X15152143Y-12850714D01*
X15423571Y-12550714D02*
X15366428Y-12550714D01*
X15337857Y-12565000D01*
X15323571Y-12579286D01*
X15295000Y-12622143D01*
X15280714Y-12679286D01*
X15280714Y-12793571D01*
X15295000Y-12822143D01*
X15309286Y-12836429D01*
X15337857Y-12850714D01*
X15395000Y-12850714D01*
X15423571Y-12836429D01*
X15437857Y-12822143D01*
X15452143Y-12793571D01*
X15452143Y-12722143D01*
X15437857Y-12693571D01*
X15423571Y-12679286D01*
X15395000Y-12665000D01*
X15337857Y-12665000D01*
X15309286Y-12679286D01*
X15295000Y-12693571D01*
X15280714Y-12722143D01*
X15637857Y-12550714D02*
X15666428Y-12550714D01*
X15695000Y-12565000D01*
X15709286Y-12579286D01*
X15723571Y-12607857D01*
X15737857Y-12665000D01*
X15737857Y-12736429D01*
X15723571Y-12793571D01*
X15709286Y-12822143D01*
X15695000Y-12836429D01*
X15666428Y-12850714D01*
X15637857Y-12850714D01*
X15609286Y-12836429D01*
X15595000Y-12822143D01*
X15580714Y-12793571D01*
X15566428Y-12736429D01*
X15566428Y-12665000D01*
X15580714Y-12607857D01*
X15595000Y-12579286D01*
X15609286Y-12565000D01*
X15637857Y-12550714D01*
X15866428Y-12850714D02*
X15866428Y-12650714D01*
X15866428Y-12679286D02*
X15880714Y-12665000D01*
X15909286Y-12650714D01*
X15952143Y-12650714D01*
X15980714Y-12665000D01*
X15995000Y-12693571D01*
X15995000Y-12850714D01*
X15995000Y-12693571D02*
X16009286Y-12665000D01*
X16037857Y-12650714D01*
X16080714Y-12650714D01*
X16109286Y-12665000D01*
X16123571Y-12693571D01*
X16123571Y-12850714D01*
X16266428Y-12850714D02*
X16266428Y-12650714D01*
X16266428Y-12679286D02*
X16280714Y-12665000D01*
X16309286Y-12650714D01*
X16352143Y-12650714D01*
X16380714Y-12665000D01*
X16395000Y-12693571D01*
X16395000Y-12850714D01*
X16395000Y-12693571D02*
X16409286Y-12665000D01*
X16437857Y-12650714D01*
X16480714Y-12650714D01*
X16509286Y-12665000D01*
X16523571Y-12693571D01*
X16523571Y-12850714D01*
X17109286Y-12536429D02*
X16852143Y-12922143D01*
X17495000Y-12550714D02*
X17523571Y-12550714D01*
X17552143Y-12565000D01*
X17566428Y-12579286D01*
X17580714Y-12607857D01*
X17595000Y-12665000D01*
X17595000Y-12736429D01*
X17580714Y-12793571D01*
X17566428Y-12822143D01*
X17552143Y-12836429D01*
X17523571Y-12850714D01*
X17495000Y-12850714D01*
X17466428Y-12836429D01*
X17452143Y-12822143D01*
X17437857Y-12793571D01*
X17423571Y-12736429D01*
X17423571Y-12665000D01*
X17437857Y-12607857D01*
X17452143Y-12579286D01*
X17466428Y-12565000D01*
X17495000Y-12550714D01*
X17723571Y-12822143D02*
X17737857Y-12836429D01*
X17723571Y-12850714D01*
X17709286Y-12836429D01*
X17723571Y-12822143D01*
X17723571Y-12850714D01*
X17923571Y-12550714D02*
X17952143Y-12550714D01*
X17980714Y-12565000D01*
X17995000Y-12579286D01*
X18009286Y-12607857D01*
X18023571Y-12665000D01*
X18023571Y-12736429D01*
X18009286Y-12793571D01*
X17995000Y-12822143D01*
X17980714Y-12836429D01*
X17952143Y-12850714D01*
X17923571Y-12850714D01*
X17895000Y-12836429D01*
X17880714Y-12822143D01*
X17866428Y-12793571D01*
X17852143Y-12736429D01*
X17852143Y-12665000D01*
X17866428Y-12607857D01*
X17880714Y-12579286D01*
X17895000Y-12565000D01*
X17923571Y-12550714D01*
X18137857Y-12579286D02*
X18152143Y-12565000D01*
X18180714Y-12550714D01*
X18252143Y-12550714D01*
X18280714Y-12565000D01*
X18295000Y-12579286D01*
X18309286Y-12607857D01*
X18309286Y-12636429D01*
X18295000Y-12679286D01*
X18123571Y-12850714D01*
X18309286Y-12850714D01*
X18566428Y-12650714D02*
X18566428Y-12850714D01*
X18495000Y-12536429D02*
X18423571Y-12750714D01*
X18609286Y-12750714D01*
X18709286Y-12550714D02*
X18709286Y-12607857D01*
X18823571Y-12550714D02*
X18823571Y-12607857D01*
X19266428Y-12965000D02*
X19252143Y-12950714D01*
X19223571Y-12907857D01*
X19209286Y-12879286D01*
X19195000Y-12836429D01*
X19180714Y-12765000D01*
X19180714Y-12707857D01*
X19195000Y-12636429D01*
X19209286Y-12593571D01*
X19223571Y-12565000D01*
X19252143Y-12522143D01*
X19266428Y-12507857D01*
X19395000Y-12850714D02*
X19452143Y-12850714D01*
X19480714Y-12836429D01*
X19495000Y-12822143D01*
X19523571Y-12779286D01*
X19537857Y-12722143D01*
X19537857Y-12607857D01*
X19523571Y-12579286D01*
X19509286Y-12565000D01*
X19480714Y-12550714D01*
X19423571Y-12550714D01*
X19395000Y-12565000D01*
X19380714Y-12579286D01*
X19366428Y-12607857D01*
X19366428Y-12679286D01*
X19380714Y-12707857D01*
X19395000Y-12722143D01*
X19423571Y-12736429D01*
X19480714Y-12736429D01*
X19509286Y-12722143D01*
X19523571Y-12707857D01*
X19537857Y-12679286D01*
X19895000Y-12850714D02*
X19895000Y-12550714D01*
X20023571Y-12850714D02*
X20023571Y-12693571D01*
X20009286Y-12665000D01*
X19980714Y-12650714D01*
X19937857Y-12650714D01*
X19909286Y-12665000D01*
X19895000Y-12679286D01*
X20209286Y-12850714D02*
X20180714Y-12836429D01*
X20166428Y-12822143D01*
X20152143Y-12793571D01*
X20152143Y-12707857D01*
X20166428Y-12679286D01*
X20180714Y-12665000D01*
X20209286Y-12650714D01*
X20252143Y-12650714D01*
X20280714Y-12665000D01*
X20295000Y-12679286D01*
X20309286Y-12707857D01*
X20309286Y-12793571D01*
X20295000Y-12822143D01*
X20280714Y-12836429D01*
X20252143Y-12850714D01*
X20209286Y-12850714D01*
X20480714Y-12850714D02*
X20452143Y-12836429D01*
X20437857Y-12807857D01*
X20437857Y-12550714D01*
X20709286Y-12836429D02*
X20680714Y-12850714D01*
X20623571Y-12850714D01*
X20595000Y-12836429D01*
X20580714Y-12807857D01*
X20580714Y-12693571D01*
X20595000Y-12665000D01*
X20623571Y-12650714D01*
X20680714Y-12650714D01*
X20709286Y-12665000D01*
X20723571Y-12693571D01*
X20723571Y-12722143D01*
X20580714Y-12750714D01*
X20837857Y-12836429D02*
X20866429Y-12850714D01*
X20923571Y-12850714D01*
X20952143Y-12836429D01*
X20966429Y-12807857D01*
X20966429Y-12793571D01*
X20952143Y-12765000D01*
X20923571Y-12750714D01*
X20880714Y-12750714D01*
X20852143Y-12736429D01*
X20837857Y-12707857D01*
X20837857Y-12693571D01*
X20852143Y-12665000D01*
X20880714Y-12650714D01*
X20923571Y-12650714D01*
X20952143Y-12665000D01*
X21066428Y-12965000D02*
X21080714Y-12950714D01*
X21109286Y-12907857D01*
X21123571Y-12879286D01*
X21137857Y-12836429D01*
X21152143Y-12765000D01*
X21152143Y-12707857D01*
X21137857Y-12636429D01*
X21123571Y-12593571D01*
X21109286Y-12565000D01*
X21080714Y-12522143D01*
X21066428Y-12507857D01*
X14595000Y-13111000D02*
G75*
G03X14595000Y-13111000I-50800J0D01*
G01*
X15023571Y-13246714D02*
X14852143Y-13246714D01*
X14937857Y-13246714D02*
X14937857Y-12946714D01*
X14909286Y-12989571D01*
X14880714Y-13018143D01*
X14852143Y-13032429D01*
X15152143Y-13218143D02*
X15166428Y-13232429D01*
X15152143Y-13246714D01*
X15137857Y-13232429D01*
X15152143Y-13218143D01*
X15152143Y-13246714D01*
X15352143Y-12946714D02*
X15380714Y-12946714D01*
X15409286Y-12961000D01*
X15423571Y-12975286D01*
X15437857Y-13003857D01*
X15452143Y-13061000D01*
X15452143Y-13132429D01*
X15437857Y-13189571D01*
X15423571Y-13218143D01*
X15409286Y-13232429D01*
X15380714Y-13246714D01*
X15352143Y-13246714D01*
X15323571Y-13232429D01*
X15309286Y-13218143D01*
X15295000Y-13189571D01*
X15280714Y-13132429D01*
X15280714Y-13061000D01*
X15295000Y-13003857D01*
X15309286Y-12975286D01*
X15323571Y-12961000D01*
X15352143Y-12946714D01*
X15566428Y-12975286D02*
X15580714Y-12961000D01*
X15609286Y-12946714D01*
X15680714Y-12946714D01*
X15709286Y-12961000D01*
X15723571Y-12975286D01*
X15737857Y-13003857D01*
X15737857Y-13032429D01*
X15723571Y-13075286D01*
X15552143Y-13246714D01*
X15737857Y-13246714D01*
X15866428Y-13246714D02*
X15866428Y-13046714D01*
X15866428Y-13075286D02*
X15880714Y-13061000D01*
X15909286Y-13046714D01*
X15952143Y-13046714D01*
X15980714Y-13061000D01*
X15995000Y-13089571D01*
X15995000Y-13246714D01*
X15995000Y-13089571D02*
X16009286Y-13061000D01*
X16037857Y-13046714D01*
X16080714Y-13046714D01*
X16109286Y-13061000D01*
X16123571Y-13089571D01*
X16123571Y-13246714D01*
X16266428Y-13246714D02*
X16266428Y-13046714D01*
X16266428Y-13075286D02*
X16280714Y-13061000D01*
X16309286Y-13046714D01*
X16352143Y-13046714D01*
X16380714Y-13061000D01*
X16395000Y-13089571D01*
X16395000Y-13246714D01*
X16395000Y-13089571D02*
X16409286Y-13061000D01*
X16437857Y-13046714D01*
X16480714Y-13046714D01*
X16509286Y-13061000D01*
X16523571Y-13089571D01*
X16523571Y-13246714D01*
X17109286Y-12932429D02*
X16852143Y-13318143D01*
X17495000Y-12946714D02*
X17523571Y-12946714D01*
X17552143Y-12961000D01*
X17566428Y-12975286D01*
X17580714Y-13003857D01*
X17595000Y-13061000D01*
X17595000Y-13132429D01*
X17580714Y-13189571D01*
X17566428Y-13218143D01*
X17552143Y-13232429D01*
X17523571Y-13246714D01*
X17495000Y-13246714D01*
X17466428Y-13232429D01*
X17452143Y-13218143D01*
X17437857Y-13189571D01*
X17423571Y-13132429D01*
X17423571Y-13061000D01*
X17437857Y-13003857D01*
X17452143Y-12975286D01*
X17466428Y-12961000D01*
X17495000Y-12946714D01*
X17723571Y-13218143D02*
X17737857Y-13232429D01*
X17723571Y-13246714D01*
X17709286Y-13232429D01*
X17723571Y-13218143D01*
X17723571Y-13246714D01*
X17923571Y-12946714D02*
X17952143Y-12946714D01*
X17980714Y-12961000D01*
X17995000Y-12975286D01*
X18009286Y-13003857D01*
X18023571Y-13061000D01*
X18023571Y-13132429D01*
X18009286Y-13189571D01*
X17995000Y-13218143D01*
X17980714Y-13232429D01*
X17952143Y-13246714D01*
X17923571Y-13246714D01*
X17895000Y-13232429D01*
X17880714Y-13218143D01*
X17866428Y-13189571D01*
X17852143Y-13132429D01*
X17852143Y-13061000D01*
X17866428Y-13003857D01*
X17880714Y-12975286D01*
X17895000Y-12961000D01*
X17923571Y-12946714D01*
X18280714Y-13046714D02*
X18280714Y-13246714D01*
X18209286Y-12932429D02*
X18137857Y-13146714D01*
X18323571Y-13146714D01*
X18495000Y-12946714D02*
X18523571Y-12946714D01*
X18552143Y-12961000D01*
X18566428Y-12975286D01*
X18580714Y-13003857D01*
X18595000Y-13061000D01*
X18595000Y-13132429D01*
X18580714Y-13189571D01*
X18566428Y-13218143D01*
X18552143Y-13232429D01*
X18523571Y-13246714D01*
X18495000Y-13246714D01*
X18466428Y-13232429D01*
X18452143Y-13218143D01*
X18437857Y-13189571D01*
X18423571Y-13132429D01*
X18423571Y-13061000D01*
X18437857Y-13003857D01*
X18452143Y-12975286D01*
X18466428Y-12961000D01*
X18495000Y-12946714D01*
X18709286Y-12946714D02*
X18709286Y-13003857D01*
X18823571Y-12946714D02*
X18823571Y-13003857D01*
X19266428Y-13361000D02*
X19252143Y-13346714D01*
X19223571Y-13303857D01*
X19209286Y-13275286D01*
X19195000Y-13232429D01*
X19180714Y-13161000D01*
X19180714Y-13103857D01*
X19195000Y-13032429D01*
X19209286Y-12989571D01*
X19223571Y-12961000D01*
X19252143Y-12918143D01*
X19266428Y-12903857D01*
X19509286Y-12946714D02*
X19452143Y-12946714D01*
X19423571Y-12961000D01*
X19409286Y-12975286D01*
X19380714Y-13018143D01*
X19366428Y-13075286D01*
X19366428Y-13189571D01*
X19380714Y-13218143D01*
X19395000Y-13232429D01*
X19423571Y-13246714D01*
X19480714Y-13246714D01*
X19509286Y-13232429D01*
X19523571Y-13218143D01*
X19537857Y-13189571D01*
X19537857Y-13118143D01*
X19523571Y-13089571D01*
X19509286Y-13075286D01*
X19480714Y-13061000D01*
X19423571Y-13061000D01*
X19395000Y-13075286D01*
X19380714Y-13089571D01*
X19366428Y-13118143D01*
X19895000Y-13246714D02*
X19895000Y-12946714D01*
X20023571Y-13246714D02*
X20023571Y-13089571D01*
X20009286Y-13061000D01*
X19980714Y-13046714D01*
X19937857Y-13046714D01*
X19909286Y-13061000D01*
X19895000Y-13075286D01*
X20209286Y-13246714D02*
X20180714Y-13232429D01*
X20166428Y-13218143D01*
X20152143Y-13189571D01*
X20152143Y-13103857D01*
X20166428Y-13075286D01*
X20180714Y-13061000D01*
X20209286Y-13046714D01*
X20252143Y-13046714D01*
X20280714Y-13061000D01*
X20295000Y-13075286D01*
X20309286Y-13103857D01*
X20309286Y-13189571D01*
X20295000Y-13218143D01*
X20280714Y-13232429D01*
X20252143Y-13246714D01*
X20209286Y-13246714D01*
X20480714Y-13246714D02*
X20452143Y-13232429D01*
X20437857Y-13203857D01*
X20437857Y-12946714D01*
X20709286Y-13232429D02*
X20680714Y-13246714D01*
X20623571Y-13246714D01*
X20595000Y-13232429D01*
X20580714Y-13203857D01*
X20580714Y-13089571D01*
X20595000Y-13061000D01*
X20623571Y-13046714D01*
X20680714Y-13046714D01*
X20709286Y-13061000D01*
X20723571Y-13089571D01*
X20723571Y-13118143D01*
X20580714Y-13146714D01*
X20837857Y-13232429D02*
X20866429Y-13246714D01*
X20923571Y-13246714D01*
X20952143Y-13232429D01*
X20966429Y-13203857D01*
X20966429Y-13189571D01*
X20952143Y-13161000D01*
X20923571Y-13146714D01*
X20880714Y-13146714D01*
X20852143Y-13132429D01*
X20837857Y-13103857D01*
X20837857Y-13089571D01*
X20852143Y-13061000D01*
X20880714Y-13046714D01*
X20923571Y-13046714D01*
X20952143Y-13061000D01*
X21066428Y-13361000D02*
X21080714Y-13346714D01*
X21109286Y-13303857D01*
X21123571Y-13275286D01*
X21137857Y-13232429D01*
X21152143Y-13161000D01*
X21152143Y-13103857D01*
X21137857Y-13032429D01*
X21123571Y-12989571D01*
X21109286Y-12961000D01*
X21080714Y-12918143D01*
X21066428Y-12903857D01*
M02*
